<?xml version="1.0" encoding="UTF-8" standalone="no"?>
<svg
   xmlns:dc="http://purl.org/dc/elements/1.1/"
   xmlns:cc="http://creativecommons.org/ns#"
   xmlns:rdf="http://www.w3.org/1999/02/22-rdf-syntax-ns#"
   xmlns:svg="http://www.w3.org/2000/svg"
   xmlns="http://www.w3.org/2000/svg"
   xmlns:xlink="http://www.w3.org/1999/xlink"
   xmlns:sodipodi="http://sodipodi.sourceforge.net/DTD/sodipodi-0.dtd"
   xmlns:inkscape="http://www.inkscape.org/namespaces/inkscape"
   version="1.1"
   id="Layer_1"
   x="0px"
   y="0px"
   width="140px"
   height="159.182px"
   viewBox="0 10.818 140 159.182"
   enable-background="new 0 10.818 140 159.182"
   xml:space="preserve"
   sodipodi:docname="pip.svg"
   inkscape:version="0.92.1 r15371"><metadata
     id="metadata104"><rdf:RDF><cc:Work
         rdf:about=""><dc:format>image/svg+xml</dc:format><dc:type
           rdf:resource="http://purl.org/dc/dcmitype/StillImage" /><dc:title></dc:title></cc:Work></rdf:RDF></metadata><sodipodi:namedview
     pagecolor="#ffffff"
     bordercolor="#666666"
     borderopacity="1"
     objecttolerance="10"
     gridtolerance="10"
     guidetolerance="10"
     inkscape:pageopacity="0"
     inkscape:pageshadow="2"
     inkscape:window-width="1920"
     inkscape:window-height="1018"
     id="namedview102"
     showgrid="false"
     showborder="false"
     inkscape:pagecheckerboard="false"
     inkscape:zoom="4.1933684"
     inkscape:cx="149.18177"
     inkscape:cy="96.349823"
     inkscape:window-x="-8"
     inkscape:window-y="-8"
     inkscape:window-maximized="1"
     inkscape:current-layer="g82" /><g
     id="g82"
     transform="translate(1.5999073e-6,-1.3490001)"
     style="filter:url(#dropshadow)"><g
       id="g80"
       transform="translate(-166.93024,8.5849838)"><g
         id="g78"><g
           id="g76"><g
             id="g22"
             style="opacity:0.49000005"><defs
               id="defs3"><rect
                 id="SVGID_1_"
                 x="2.7590001"
                 y="10.818"
                 width="138.241"
                 height="172.08099"
                 style="opacity:0.49000005" /></defs><clipPath
               id="SVGID_2_"><use
                 xlink:href="#SVGID_1_"
                 overflow="visible"
                 id="use5"
                 style="overflow:visible"
                 x="0"
                 y="0"
                 width="100%"
                 height="100%" /></clipPath><g
               clip-path="url(#SVGID_2_)"
               id="g20"><g
                 id="g18"><defs
                   id="defs9"><rect
                     id="SVGID_3_"
                     x="2.7590001"
                     y="-0.182"
                     width="138.24001"
                     height="172.08099" /></defs><clipPath
                   id="SVGID_4_"><use
                     xlink:href="#SVGID_3_"
                     overflow="visible"
                     id="use11"
                     style="overflow:visible"
                     x="0"
                     y="0"
                     width="100%"
                     height="100%" /></clipPath><g
                   clip-path="url(#SVGID_4_)"
                   id="g16" /></g></g></g><path
             d="m 176.15828,10.818 v 118.989 c 0,0 0.002,2.934 1.051,6.647 1.012,3.582 2.998,7.89 6.905,10.985 0.796,0.58 1.603,1.113 2.42,1.592 3.922,2.302 8.095,3.451 12.521,3.443 2.462,-0.006 4.967,-0.606 7.663,-0.957 0.007,0 0.015,-0.002 0.022,-0.002 0,0 0.008,-0.002 0.018,-0.002 0.36,-0.045 3.15,-0.389 5.46,-0.477 2.489,-0.096 4.964,0.074 5.005,0.078 l -0.003,0.002 c 7.295,0.503 13.373,4.779 14.931,6.857 0,0 0.568,0.776 0.979,0.81 h 0.084 0.011 0.011 0.083 c 0.41,-0.033 0.979,-0.81 0.979,-0.81 1.558,-2.078 7.636,-6.354 14.932,-6.857 l -0.003,-0.002 c 0.04,-0.004 2.515,-0.174 5.005,-0.078 2.311,0.088 5.102,0.432 5.46,0.477 0.009,0 0.013,0 0.013,0 0.014,0.002 0.021,0.004 0.027,0.004 2.695,0.351 5.201,0.951 7.663,0.957 4.425,0.008 8.599,-1.142 12.521,-3.443 0.817,-0.479 1.625,-1.012 2.42,-1.592 3.908,-3.096 5.895,-7.403 6.906,-10.985 1.049,-3.713 1.051,-6.647 1.051,-6.647 V 10.818 Z"
             id="path24"
             inkscape:connector-curvature="0"
             style="fill:#fffaef" /><path
             d="m 239.39805,68.507 1.222,-0.218 c 4.238,-0.191 5.672,-6.587 5.672,-6.587 l 1.162,-0.888 -0.601,-0.747 -0.528,-0.566 -0.334,-0.585 -0.426,-1.081 -0.104,-0.333 0.012,10e-4 0.249,-0.009 0.25,-0.024 c 0,0 0.215,-0.062 0.229,-0.062 0.014,0.003 0.178,-0.066 0.178,-0.066 0,0 0.207,-0.1 0.222,-0.107 0.013,-0.009 0.136,-0.094 0.136,-0.094 l 0.23,-0.198 c 0,0 0.163,-0.177 0.189,-0.191 0.021,-0.009 0.104,-0.152 0.104,-0.152 l 0.179,-0.383 -0.05,-0.168 c 0,0 -0.075,-0.133 -0.14,-0.048 -0.067,0.083 -0.127,0.182 -0.127,0.182 -0.004,0.044 -0.18,0.161 -0.18,0.161 0,0 -0.242,0.146 -0.25,0.169 -0.01,0.019 -0.211,0.107 -0.211,0.107 l -0.248,0.056 -0.335,0.033 -0.259,-0.036 c 0,0 -0.148,-0.078 -0.184,-0.108 -0.031,-0.03 -0.155,-0.102 -0.183,-0.164 -0.032,-0.057 -0.153,-0.245 -0.153,-0.245 l -0.028,-0.052 -0.226,-1.284 -0.14,-1.111 -0.125,-0.703 -0.095,-0.626 -0.184,-0.352 c -1.906,-3.044 -5.465,-3.623 -7.113,-3.69 -2.356,-0.095 -4.733,0.386 -6.883,1.395 -0.421,0.198 -0.838,0.419 -1.19,0.73 -0.487,0.431 -0.826,1.014 -1.121,1.604 -1.312,2.622 -1.916,5.617 -1.737,8.565 l -0.035,0.101 -0.521,1.952 -0.599,1.06 -0.425,0.369 -0.446,0.432 c 0,0 -0.562,0.475 -0.718,0.637 -0.161,0.167 -0.532,0.261 -0.648,0.326 -0.111,0.059 -0.542,0.147 -0.542,0.147 l -0.571,-0.193 -0.598,-0.51 -0.392,-0.485 c 0,0 -0.228,-0.533 -0.237,-0.612 -0.012,-0.112 -0.201,-0.868 -0.201,-0.868 0,0 -0.01,-0.516 0.006,-0.706 0.012,-0.167 0.344,-1.525 0.383,-1.593 0.053,-0.093 0.505,-0.841 0.556,-0.899 0.058,-0.066 0.474,-0.379 0.474,-0.379 l 0.692,-0.166 0.479,0.217 0.354,0.726 0.002,0.597 -0.116,0.571 -0.159,0.559 0.443,-0.135 0.24,-0.696 0.102,-0.472 0.033,-0.378 -0.104,-0.376 -0.143,-0.357 -0.278,-0.353 -0.369,-0.251 -0.29,-0.103 -0.25,-0.071 -0.48,-0.032 -0.588,0.273 -0.584,0.483 -0.348,0.338 -0.292,0.418 -0.211,0.478 -0.189,0.471 -0.333,1.066 -0.092,1.251 c 0,0 -0.052,0.57 -0.058,0.641 -0.006,0.086 0.058,0.862 0.058,0.862 l 0.107,0.943 c 0,0 0.103,0.431 0.113,0.478 0.013,0.045 0.25,0.62 0.25,0.62 0,0 0.204,0.416 0.23,0.443 0.034,0.035 0.351,0.488 0.351,0.488 l 0.45,0.381 0.475,0.327 0.478,0.23 0.603,0.184 c 0,0 0.524,0.128 0.561,0.135 0.03,0.008 0.574,0.064 0.574,0.064 l 0.639,-0.031 0.734,-0.025 0.814,-0.112 0.569,-0.119 0.646,-0.173 0.405,-0.139 0.289,-0.194 0.679,-0.431 1.238,-1.288 0.085,-0.177 0.159,-0.159 2.441,1.965 0.019,0.89 -0.214,1.504 -3.677,1.29 0.372,1.35 -4.486,4.765 -0.222,0.948 0.315,0.275 0.365,0.324 0.366,0.253 0.439,0.329 0.439,0.301 0.341,0.213 0.642,0.405 0.771,0.455 0.867,0.438 0.82,0.329 0.732,0.253 0.854,0.202 0.755,0.136 0.682,0.076 0.693,0.037 h 0.78 l 0.769,-0.037 0.845,-0.088 0.72,-0.103 0.765,-0.137 0.668,-0.126 0.796,-0.176 0.581,-0.113 0.577,-0.151 0.808,-0.251 0.72,-0.252 0.998,-0.409 0.978,-0.544 0.581,-0.354 0.531,-0.397 0.539,-0.377 0.498,-0.39 -1.188,-2.644 -3.375,-2.319 -0.168,-1.913 -2.632,-1.25 0.27,-2.091 z"
             id="path28"
             inkscape:connector-curvature="0"
             style="fill:#5ca3ae" /><path
             d="m 239.73105,37.888 -0.119,-0.423 0.113,-0.284 0.127,-0.419 0.288,-0.833 -0.911,0.303 -0.593,0.182 -0.582,-0.138 -0.509,-0.132 -1.277,0.173 -0.549,0.501 c 0,0 -0.502,0.794 -0.514,0.898 -0.018,0.102 -0.293,1.182 -0.381,1.313 -0.039,0.049 -0.161,0.212 -0.294,0.388 -0.192,0.248 -0.492,0.764 -0.492,0.764 l -2.809,2.28 -4.734,2.296 0.661,2.241 2.606,-1.769 1.767,-0.992 0.54,0.823 0.313,0.312 0.317,0.243 0.425,0.234 -0.973,3.064 -0.75,2.025 1.284,0.185 0.407,-1.684 0.997,-3.59 1.405,0.086 -0.138,2.937 -0.088,2.234 1.187,-0.097 -0.018,-1.305 -0.076,-3.832 0.504,-0.218 0.689,-0.286 0.665,-0.355 0.497,-0.503 0.417,-0.722 0.438,-0.824 0.392,-1.243 0.132,-1.681 -0.23,-1.364 z m -1.401,0.411 c -0.028,0.19 -0.065,0.388 -0.223,0.478 -0.224,0.123 -0.38,0.186 -0.623,0.157 -0.191,-0.024 -0.326,-0.116 -0.445,-0.241 -0.166,-0.158 -0.18,-0.368 -0.146,-0.605 0.035,-0.263 0.202,-0.395 0.362,-0.489 0.136,-0.08 0.282,-0.086 0.448,-0.067 0.258,0.031 0.388,0.086 0.504,0.287 0.088,0.141 0.146,0.305 0.123,0.48"
             id="path30"
             inkscape:connector-curvature="0"
             style="fill:#5ca3ae" /><path
             d="m 191.11005,99.628 h 3.188 c 1.537,0 2.654,0.388 3.354,1.164 0.697,0.784 1.047,2.024 1.047,3.726 0,2.389 -0.702,3.934 -2.107,4.633 -0.706,0.318 -1.726,0.477 -3.061,0.477 v 7.973 h -2.421 z m 2.421,7.929 c 1.001,0 1.691,-0.203 2.072,-0.605 0.388,-0.412 0.582,-1.141 0.582,-2.189 0,-1.07 -0.187,-1.854 -0.56,-2.351 -0.372,-0.497 -0.958,-0.745 -1.758,-0.745 h -0.337 z"
             id="path32"
             inkscape:connector-curvature="0"
             style="fill:#5ca3ae" /><rect
             x="201.15805"
             y="99.628998"
             width="2.421"
             height="17.973"
             id="rect34"
             style="fill:#5ca3ae" /><path
             d="m 207.54005,99.628 h 3.189 c 1.537,0 2.654,0.388 3.353,1.164 0.698,0.784 1.047,2.024 1.047,3.726 0,2.389 -0.702,3.934 -2.106,4.633 -0.706,0.318 -1.727,0.477 -3.062,0.477 v 7.973 h -2.421 z m 2.421,7.929 c 1.001,0 1.692,-0.203 2.072,-0.605 0.388,-0.412 0.582,-1.141 0.582,-2.189 0,-1.07 -0.187,-1.854 -0.559,-2.351 -0.372,-0.497 -0.958,-0.745 -1.758,-0.745 h -0.338 z"
             id="path36"
             inkscape:connector-curvature="0"
             style="fill:#5ca3ae" /><path
             d="m 229.11505,100.001 v 2.362 c -0.737,-0.527 -1.401,-0.791 -1.99,-0.791 -0.637,0 -1.157,0.226 -1.561,0.676 -0.403,0.426 -0.605,0.997 -0.605,1.711 0,0.628 0.144,1.168 0.431,1.618 0.147,0.239 0.39,0.551 0.729,0.931 0.337,0.381 0.773,0.838 1.309,1.373 0.986,1.001 1.657,1.867 2.014,2.596 0.357,0.707 0.535,1.572 0.535,2.596 0,1.39 -0.392,2.535 -1.175,3.435 -0.784,0.877 -1.789,1.315 -3.015,1.315 -1.032,0 -1.913,-0.283 -2.643,-0.85 v -2.397 c 0.861,0.628 1.646,0.942 2.352,0.942 0.659,0 1.176,-0.22 1.548,-0.658 0.373,-0.438 0.559,-1.033 0.559,-1.787 0,-0.651 -0.144,-1.237 -0.431,-1.758 -0.147,-0.248 -0.354,-0.533 -0.617,-0.854 -0.264,-0.321 -0.593,-0.681 -0.989,-1.077 -0.612,-0.604 -1.122,-1.141 -1.524,-1.605 -0.404,-0.467 -0.702,-0.873 -0.896,-1.223 -0.373,-0.684 -0.559,-1.545 -0.559,-2.584 0,-1.404 0.365,-2.519 1.094,-3.341 0.737,-0.831 1.728,-1.246 2.968,-1.246 0.859,0 1.681,0.205 2.466,0.616"
             id="path38"
             inkscape:connector-curvature="0"
             style="fill:#5ca3ae" /><polygon
             points="69.955,117.602 69.955,101.747 67.161,101.747 67.161,99.628 75.041,99.628 75.041,101.747 72.329,101.747 72.329,117.602 "
             id="polygon40"
             style="fill:#5ca3ae"
             transform="translate(164.30705)" /><path
             d="m 241.28405,99.628 h 2.375 v 12.699 c 0,1.296 0.115,2.157 0.35,2.584 0.238,0.427 0.714,0.642 1.42,0.642 0.705,0 1.171,-0.188 1.396,-0.56 0.232,-0.38 0.349,-1.152 0.349,-2.315 v -13.05 h 2.375 v 13.05 c 0,1.954 -0.3,3.277 -0.896,3.969 -0.716,0.783 -1.806,1.176 -3.273,1.176 -1.612,0 -2.75,-0.506 -3.408,-1.514 -0.459,-0.69 -0.688,-2.018 -0.688,-3.981 z"
             id="path42"
             inkscape:connector-curvature="0"
             style="fill:#5ca3ae" /><path
             d="m 252.91205,99.628 h 2.98 c 0.908,0 1.672,0.101 2.293,0.304 0.574,0.193 1.086,0.539 1.536,1.035 0.675,0.745 1.155,1.715 1.442,2.91 0.287,1.156 0.432,2.813 0.432,4.971 0,1.979 -0.159,3.592 -0.479,4.842 -0.311,1.195 -0.82,2.106 -1.535,2.735 -0.879,0.784 -2.448,1.175 -4.715,1.175 h -1.955 V 99.628 Z m 2.422,15.854 c 1.475,0 2.459,-0.446 2.955,-1.34 0.515,-0.892 0.771,-2.625 0.771,-5.203 0,-2.77 -0.245,-4.674 -0.733,-5.715 -0.488,-1.039 -1.386,-1.56 -2.688,-1.56 h -0.304 v 13.818 z"
             id="path44"
             inkscape:connector-curvature="0"
             style="fill:#5ca3ae" /><rect
             x="264.60306"
             y="99.628998"
             width="2.421"
             height="17.973"
             id="rect46"
             style="fill:#5ca3ae" /><path
             d="m 279.38805,109.057 c 0,3.174 -0.354,5.428 -1.06,6.764 -0.707,1.334 -1.89,2.002 -3.551,2.002 -1.746,0 -2.977,-0.719 -3.689,-2.154 -0.706,-1.404 -1.059,-3.898 -1.059,-7.484 0,-3.197 0.348,-5.459 1.047,-6.785 0.707,-1.336 1.9,-2.002 3.586,-2.002 1.504,0 2.623,0.516 3.352,1.547 0.48,0.691 0.83,1.672 1.048,2.945 0.218,1.178 0.326,2.901 0.326,5.167 m -2.537,0.256 c 0,-3.111 -0.142,-5.176 -0.42,-6.192 -0.278,-1.024 -0.851,-1.536 -1.711,-1.536 -0.86,0 -1.437,0.471 -1.724,1.408 -0.278,0.947 -0.418,2.848 -0.418,5.703 0,2.632 0.146,4.455 0.441,5.472 0.303,0.962 0.868,1.442 1.699,1.442 0.814,0 1.373,-0.449 1.676,-1.35 0.306,-0.892 0.457,-2.541 0.457,-4.947"
             id="path48"
             inkscape:connector-curvature="0"
             style="fill:#5ca3ae" /><rect
             x="186.19705"
             y="123.215"
             width="97.866997"
             height="0.57700002"
             id="rect50"
             style="fill:#5ca3ae" /><path
             d="m 198.10305,130.705 c 0.243,0 0.447,0.083 0.613,0.25 0.166,0.167 0.248,0.371 0.248,0.611 0,0.238 -0.082,0.441 -0.248,0.608 -0.166,0.166 -0.37,0.25 -0.613,0.25 -0.235,0 -0.438,-0.083 -0.606,-0.249 -0.167,-0.166 -0.251,-0.369 -0.251,-0.609 0,-0.236 0.083,-0.439 0.25,-0.608 0.167,-0.169 0.37,-0.253 0.607,-0.253"
             id="path52"
             inkscape:connector-curvature="0"
             style="fill:#5ca3ae" /><path
             d="m 205.09905,129.393 1.918,4.344 h -0.887 l -0.45,-1.057 h -1.932 l -0.42,1.057 h -0.88 l 1.791,-4.344 z m -1.096,2.649 h 1.404 l -0.734,-1.72 z"
             id="path54"
             inkscape:connector-curvature="0"
             style="fill:#5ca3ae" /><polygon
             points="49.926,133.736 49.926,130.686 49.901,130.686 48.645,132.216 48.526,132.216 47.271,130.686 47.245,130.686 47.245,133.736 46.405,133.736 46.405,129.393 47.161,129.393 48.588,131.105 50.017,129.393 50.767,129.393 50.767,133.736 "
             id="polygon56"
             style="fill:#5ca3ae"
             transform="translate(164.30705)" /><path
             d="m 220.47505,129.336 c 0.423,0 0.831,0.105 1.222,0.316 v 0.748 c -0.449,-0.272 -0.849,-0.408 -1.196,-0.408 -0.212,0 -0.377,0.041 -0.496,0.123 -0.119,0.082 -0.179,0.191 -0.179,0.328 0,0.164 0.11,0.314 0.333,0.453 0.062,0.043 0.302,0.158 0.718,0.35 0.356,0.168 0.613,0.354 0.771,0.559 0.157,0.207 0.236,0.453 0.236,0.741 0,0.373 -0.134,0.675 -0.403,0.903 -0.268,0.229 -0.616,0.344 -1.043,0.344 -0.277,0 -0.517,-0.031 -0.717,-0.092 -0.2,-0.061 -0.425,-0.166 -0.673,-0.316 v -0.826 c 0.464,0.385 0.901,0.578 1.312,0.578 0.205,0 0.371,-0.045 0.498,-0.134 0.126,-0.089 0.189,-0.207 0.189,-0.354 0,-0.201 -0.109,-0.365 -0.329,-0.492 -0.183,-0.1 -0.418,-0.219 -0.706,-0.357 -0.342,-0.154 -0.598,-0.337 -0.767,-0.544 -0.169,-0.207 -0.253,-0.448 -0.253,-0.721 0,-0.365 0.135,-0.656 0.406,-0.873 0.273,-0.219 0.631,-0.326 1.077,-0.326"
             id="path58"
             inkscape:connector-curvature="0"
             style="fill:#5ca3ae" /><polygon
             points="62.591,130.048 61.048,130.048 61.048,129.393 64.974,129.393 64.974,130.048 63.431,130.048 63.431,133.736 62.591,133.736 "
             id="polygon60"
             style="fill:#5ca3ae"
             transform="translate(164.30705)" /><polygon
             points="71.521,131.846 69.635,131.846 69.635,133.081 71.646,133.081 71.646,133.736 68.796,133.736 68.796,129.393 71.604,129.393 71.604,130.048 69.635,130.048 69.635,131.189 71.521,131.189 "
             id="polygon62"
             style="fill:#5ca3ae"
             transform="translate(164.30705)" /><path
             d="m 241.48905,129.393 c 0.407,0 0.74,0.112 0.998,0.338 0.258,0.227 0.387,0.521 0.387,0.885 0,0.246 -0.064,0.462 -0.191,0.645 -0.128,0.184 -0.316,0.328 -0.568,0.434 0.141,0.076 0.264,0.177 0.37,0.306 0.108,0.128 0.242,0.345 0.401,0.649 0.266,0.526 0.463,0.89 0.591,1.088 h -0.937 c -0.063,-0.094 -0.15,-0.246 -0.262,-0.457 -0.24,-0.461 -0.416,-0.773 -0.527,-0.934 -0.112,-0.16 -0.221,-0.275 -0.323,-0.343 -0.104,-0.067 -0.224,-0.101 -0.358,-0.101 h -0.305 v 1.834 h -0.84 v -4.344 z m -0.191,1.853 c 0.22,0 0.393,-0.055 0.518,-0.165 0.125,-0.11 0.188,-0.261 0.188,-0.451 0,-0.198 -0.063,-0.349 -0.188,-0.446 -0.124,-0.098 -0.301,-0.147 -0.53,-0.147 h -0.522 v 1.21 h 0.534 z"
             id="path64"
             inkscape:connector-curvature="0"
             style="fill:#5ca3ae" /><path
             d="m 249.03005,129.393 c 0.452,0 0.854,0.092 1.207,0.276 0.354,0.185 0.627,0.444 0.821,0.776 0.194,0.334 0.292,0.711 0.292,1.127 0,0.426 -0.098,0.803 -0.294,1.131 -0.196,0.328 -0.476,0.583 -0.834,0.764 -0.362,0.18 -0.774,0.27 -1.242,0.27 h -1.771 v -4.344 z m -0.086,3.688 c 0.465,0 0.836,-0.14 1.117,-0.419 0.281,-0.278 0.422,-0.645 0.422,-1.096 0,-0.469 -0.142,-0.838 -0.425,-1.11 -0.283,-0.272 -0.664,-0.408 -1.144,-0.408 h -0.864 v 3.033 z"
             id="path66"
             inkscape:connector-curvature="0"
             style="fill:#5ca3ae" /><path
             d="m 257.39405,129.393 1.919,4.344 h -0.887 l -0.45,-1.057 h -1.933 l -0.42,1.057 h -0.881 l 1.793,-4.344 z m -1.096,2.649 h 1.403 l -0.734,-1.72 z"
             id="path68"
             inkscape:connector-curvature="0"
             style="fill:#5ca3ae" /><polygon
             points="102.223,133.736 102.223,130.686 102.195,130.686 100.939,132.216 100.82,132.216 99.564,130.686 99.54,130.686 99.54,133.736 98.7,133.736 98.7,129.393 99.456,129.393 100.884,131.105 102.313,129.393 103.063,129.393 103.063,133.736 "
             id="polygon70"
             style="fill:#5ca3ae"
             transform="translate(164.30705)" /><path
             d="m 272.15905,130.705 c 0.241,0 0.446,0.083 0.612,0.25 0.165,0.167 0.248,0.371 0.248,0.611 0,0.238 -0.083,0.441 -0.248,0.608 -0.166,0.166 -0.371,0.25 -0.612,0.25 -0.236,0 -0.438,-0.083 -0.606,-0.249 -0.168,-0.166 -0.252,-0.369 -0.252,-0.609 0,-0.236 0.084,-0.439 0.251,-0.608 0.167,-0.169 0.366,-0.253 0.607,-0.253"
             id="path72"
             inkscape:connector-curvature="0"
             style="fill:#5ca3ae" /><path
             d="m 208.33005,60.694 c -1.722,0.699 -2.338,1.984 -2.338,3.25 0,0.949 0.14,1.934 0.835,2.617 0.67,0.649 2.171,0.968 3.226,1.164 -0.877,0.686 -1.805,1.696 -1.723,2.763 0.177,2.301 1.892,2.882 3.729,3.39 -0.518,0.682 -1.394,1.683 -1.394,2.572 0,0.904 0.32,1.744 0.862,2.437 0.845,1.075 2.241,1.779 3.815,1.779 0.303,0 1.162,-0.243 1.448,-0.293 -0.349,0.636 -0.892,1.666 -0.892,2.425 0,1.406 0.45,2.568 1.51,3.421 0.877,0.709 2.024,1.137 3.281,1.137 0.984,0 2.063,-0.658 2.838,-1.113 -0.002,0.047 0,0.871 0,0.918 0,1.13 0.375,1.758 1.251,2.49 0.878,0.736 2.088,1.193 3.425,1.193 1.452,0 2.952,-1.477 3.841,-2.328 0.444,1.635 0.979,3.619 3.676,3.785 1.082,0.067 2.065,-0.408 2.784,-1.066 0.679,-0.614 1.188,-1.813 1.271,-2.746 0.743,0.853 1.976,1.775 3.462,1.775 1.049,0 2.047,-0.228 2.733,-0.744 0.381,-0.285 1.11,-1.197 1.11,-2.115 0,-0.471 -0.301,-1.688 -0.562,-2.086 0.713,0.547 2.09,1.454 3.063,1.454 1.219,0 2.313,-0.508 3.076,-1.317 0.683,-0.724 0.879,-1.834 0.879,-2.899 0,-0.32 -0.522,-1.272 -0.594,-1.569 1.836,0.607 3.233,0.03 3.977,-0.778 0.533,-0.574 0.845,-1.27 0.845,-2.015 0,-0.698 -0.274,-1.35 -0.743,-1.908 0.711,-0.034 1.549,0.062 2.152,-0.141 0.802,-0.274 1.195,-0.694 1.679,-1.19 0.515,-0.513 0.933,-1.614 0.896,-2.272 -0.09,-1.67 -1.237,-2.527 -2.394,-3.144 1.376,0.032 3.099,-0.459 3.718,-1.425 0.457,-0.712 0.688,-1.075 0.707,-1.99 0.051,-2.609 -1.39,-3.354 -3.089,-3.78 1.257,-0.183 2.402,-0.733 3.175,-1.513 0.621,-0.629 1,-1.408 1,-2.271 0,-1.15 -0.447,-2.624 -1.42,-3.345 -0.734,-0.539 -1.459,-0.986 -3.09,-0.871 0.868,-0.271 2.069,-0.585 2.594,-1.192 0.522,-0.61 0.664,-1.355 0.664,-2.153 0,-1.149 -0.472,-2.179 -1.472,-2.872 -0.726,-0.499 -1.637,-0.826 -2.644,-0.89 1.145,-0.463 1.938,-1.467 1.938,-2.635 0,-1.113 -0.817,-2.396 -1.881,-2.882 -0.462,-0.214 -0.757,-0.263 -1.313,-0.263 -0.422,0 -1.441,0.259 -1.814,0.383 0.74,-0.639 1.4,-1.598 1.471,-2.509 0.1,-1.312 -0.57,-2.267 -1.558,-2.939 -0.815,-0.557 -1.966,-0.826 -3.085,-0.516 -0.461,0.128 -1.48,0.63 -1.919,0.729 1.038,-0.896 1.403,-2.378 1.284,-3.036 -0.162,-0.89 -0.471,-1.439 -1.369,-1.905 -0.555,-0.284 -1.223,-0.605 -1.924,-0.605 -0.75,0 -1.658,0.189 -2.334,0.89 0.207,-0.415 0.395,-1.495 0.418,-1.969 0.082,-1.646 -0.418,-2.112 -1.135,-2.753 -0.826,-0.746 -1.957,-0.956 -3.296,-0.956 -1.631,0 -2.745,0.875 -3.424,2.292 0.123,-1.295 -0.276,-2.151 -0.722,-2.819 -0.698,-1.039 -2.069,-1.357 -3.34,-1.357 -1.127,0 -2.084,0.392 -2.786,1.243 -0.581,0.703 -0.628,2.15 -0.667,3.169 -0.611,-1.343 -2.354,-2.811 -4.007,-2.811 -1.021,0 -1.95,0.358 -2.66,0.954 -0.829,0.692 -1.348,1.699 -1.348,2.828 0,0.251 0.114,0.779 0.166,1.018 -0.321,-0.145 -0.841,-0.644 -1.949,-0.921 -1.17,-0.293 -2.633,0.178 -3.396,0.725 -0.927,0.667 -1.168,2.001 -1.168,3.105 0,0.479 0.576,1.176 0.776,1.599 -0.5,-0.215 -1.806,-0.779 -2.394,-0.779 -0.961,0 -1.564,0.516 -2.258,1.048 -0.899,0.693 -1.47,1.749 -1.47,2.929 0,0.523 0.798,1.246 0.999,1.698 -0.104,-0.006 -1.286,0 -1.39,0 -1.383,0 -2.246,0.261 -3.154,1.075 -0.907,0.821 -1.135,1.499 -1.135,2.747 0,1.516 1.532,2.586 2.807,3.4 -1.813,-0.111 -3.447,0.24 -4.282,2.256 -0.211,0.511 -0.192,1.065 -0.192,1.623 0,1.123 1.567,1.951 2.673,2.52 -1.409,0.254 -2.314,1.031 -2.759,1.7 -0.372,0.552 -0.513,1.307 -0.513,1.995 0.007,1.529 1.441,2.59 2.943,3.185 m 1.489,4.699 c -0.453,0.067 -1.001,-0.084 -1.307,-0.347 -0.297,-0.264 -0.316,-0.625 -0.316,-1.026 0,-0.43 0.198,-0.828 0.54,-1.087 0.295,-0.233 0.615,-0.292 1.041,-0.292 0.553,0 0.988,0.152 1.297,0.505 0.203,0.242 0.287,0.544 0.287,0.874 0,0.892 -0.5,1.231 -1.542,1.373 m 2.384,5.856 c -0.199,0.097 -0.471,0.17 -0.719,0.17 -0.298,0 -0.607,-0.076 -0.834,-0.22 -0.332,-0.205 -0.478,-0.563 -0.478,-0.942 0,-0.274 0.118,-0.527 0.31,-0.724 0.248,-0.257 0.629,-0.365 1.047,-0.416 0.956,-0.13 1.352,0.512 1.352,1.14 0,0.421 -0.269,0.793 -0.678,0.992 m 3.646,6.29 c -0.265,0.216 -0.65,0.372 -1.032,0.372 -0.325,0 -0.666,-0.02 -0.914,-0.181 -0.377,-0.252 -0.643,-0.736 -0.624,-1.196 0.041,-1.162 0.754,-1.423 1.582,-1.423 0.338,0 0.65,0.101 0.895,0.274 0.366,0.251 0.564,0.621 0.564,1.075 0,0.418 -0.156,0.827 -0.471,1.079 m 5.331,7.139 c -0.273,0.322 -0.816,0.38 -1.278,0.38 -0.83,0 -1.375,-0.507 -1.375,-1.307 0,-0.399 0.169,-0.765 0.439,-1.025 0.271,-0.263 0.645,-0.428 1.061,-0.428 0.828,0 1.499,0.654 1.499,1.453 0,0.351 -0.128,0.675 -0.346,0.927 m 7.63,3.829 c -0.268,0.249 -0.631,0.296 -1.038,0.296 -0.831,0 -1.421,-0.513 -1.421,-1.281 0,-0.396 0.182,-0.748 0.472,-1.004 0.263,-0.238 0.627,-0.338 1.032,-0.338 0.414,0 0.787,0.112 1.055,0.362 0.273,0.251 0.443,0.599 0.443,0.979 0,0.385 -0.27,0.732 -0.543,0.986 m 7.13,1.737 c 0,0 -0.947,0.123 -1.276,-1.156 0,0 -0.013,-0.084 -0.013,-0.122 0,-0.629 0.464,-1.223 1.205,-1.223 0.381,0 0.885,0.218 1.129,0.424 0.245,0.206 0.396,0.492 0.396,0.808 -0.002,0.632 -0.69,1.269 -1.441,1.269 m 8.833,-2.685 c -0.28,0.232 -0.836,0.364 -1.247,0.364 -0.572,0 -1.078,-0.272 -1.351,-0.677 -0.147,-0.215 -0.192,-0.543 -0.192,-0.809 0,-0.783 0.627,-1.271 1.499,-1.271 0.446,0 0.888,0.094 1.179,0.355 0.274,0.256 0.448,0.604 0.448,0.99 0,0.41 -0.02,0.789 -0.336,1.048 m 5.666,-3.117 c -0.172,0.045 -0.555,0.073 -0.748,0.073 -0.653,0 -1.329,-0.325 -1.625,-0.764 -0.146,-0.208 -0.206,-0.608 -0.206,-0.87 0,-0.322 -0.005,-0.738 0.206,-0.98 0.319,-0.359 1.05,-0.656 1.625,-0.656 0.626,0 1.177,0.462 1.487,0.867 0.166,0.222 0.266,0.487 0.266,0.769 0,0.642 -0.306,1.366 -1.005,1.561 m 5.085,-5.675 c -0.252,0.38 -0.683,0.777 -1.166,0.777 -0.395,0 -0.953,-0.245 -1.211,-0.51 -0.255,-0.262 -0.373,-0.577 -0.373,-0.979 0,-0.268 0.047,-0.616 0.165,-0.835 0.246,-0.429 0.897,-0.72 1.419,-0.72 0.272,0 0.532,0.075 0.748,0.216 0.399,0.257 0.67,0.712 0.67,1.233 0,0.304 -0.096,0.587 -0.252,0.818 m 4.167,-6.008 c 0,0.804 -0.747,1.709 -2.002,1.601 -0.454,-0.043 -0.872,-0.345 -1.181,-0.609 -0.299,-0.264 -0.483,-0.623 -0.483,-1.027 0,-0.301 0.103,-0.582 0.285,-0.809 0.3,-0.388 0.89,-0.716 1.462,-0.716 0.549,0 1.071,0.193 1.378,0.547 0.212,0.241 0.541,0.687 0.541,1.013 m 1.541,-7.797 c 0.414,0.229 0.625,0.79 0.625,1.232 0,0.278 -0.118,0.549 -0.307,0.789 -0.188,0.239 -0.443,0.45 -0.726,0.596 -0.262,0.133 -0.539,0.211 -0.804,0.211 -0.421,0 -0.8,-0.167 -1.073,-0.441 -0.264,-0.259 -0.425,-0.616 -0.425,-1.008 0,-0.412 -0.036,-0.933 0.25,-1.199 0.269,-0.249 0.972,-0.547 1.374,-0.547 0.374,0 0.75,0.184 1.086,0.367 m 0.207,-8.417 c 0.354,-0.045 0.824,0.22 1.087,0.4 0.34,0.238 0.537,0.824 0.537,1.233 0,0.333 -0.15,0.629 -0.376,0.866 -0.413,0.441 -0.842,0.478 -1.289,0.478 -0.329,0 -0.874,-0.135 -1.124,-0.29 -0.375,-0.239 -0.669,-0.802 -0.669,-1.232 0,-0.724 0.919,-1.346 1.834,-1.455 m -1.247,-7.321 c 0.448,0 0.854,0.163 1.148,0.422 0.295,0.263 0.641,0.735 0.641,1.132 0,0.799 -0.813,1.378 -1.707,1.378 -0.505,0 -1.042,-0.247 -1.341,-0.571 -0.231,-0.246 -0.243,-0.605 -0.243,-0.952 0,-0.431 0.09,-0.782 0.422,-1.048 0.286,-0.224 0.664,-0.361 1.08,-0.361 m -2.877,-5.591 c 0.235,-0.177 0.71,-0.365 1.043,-0.365 0.734,0 1.414,0.595 1.414,1.233 0,0.323 -0.232,0.686 -0.473,0.898 -0.243,0.208 -0.575,0.336 -0.941,0.336 -0.391,0 -0.74,-0.144 -0.984,-0.377 -0.219,-0.206 -0.35,-0.48 -0.35,-0.783 0,-0.346 0.012,-0.731 0.291,-0.942 m -2.789,-6.022 c 0.825,0 1.625,0.8 1.625,1.519 0,0.729 -0.8,1.093 -1.625,1.093 -0.83,0 -1.501,-0.588 -1.501,-1.308 0,-0.718 0.671,-1.304 1.501,-1.304 m -6.153,-3.963 c 0.066,-0.718 0.658,-0.972 1.316,-0.972 0.735,0 1.418,0.435 1.334,1.16 -0.04,0.341 -0.167,0.648 -0.431,0.857 -0.243,0.191 -0.556,0.307 -0.901,0.307 -0.487,0 -0.937,-0.171 -1.167,-0.508 -0.119,-0.176 -0.167,-0.439 -0.167,-0.656 0,-0.061 0.014,-0.126 0.016,-0.188 m -6.356,-4.82 c 0.213,-0.435 0.886,-0.763 1.463,-0.763 0.968,0 1.794,0.869 1.794,1.669 0,0.35 -0.085,0.767 -0.336,1.016 -0.318,0.324 -0.872,0.437 -1.417,0.437 -0.649,0 -1.223,-0.296 -1.519,-0.736 -0.146,-0.212 -0.229,-0.458 -0.229,-0.717 0.002,-0.324 0.111,-0.623 0.244,-0.906 m -6.45,-2.682 c 0.565,0 1.191,0.392 1.491,0.767 0.188,0.236 0.3,0.523 0.3,0.832 0,0.481 -0.268,0.908 -0.688,1.17 -0.271,0.177 -0.615,0.279 -0.979,0.279 -0.46,0 -0.875,-0.163 -1.176,-0.427 -0.303,-0.259 -0.481,-0.66 -0.53,-1.057 -0.214,-1.753 1.582,-1.564 1.582,-1.564 m -8.04,1.599 c 1.125,-0.145 1.669,0.61 1.669,1.414 0,0.8 -0.837,1.488 -1.669,1.488 -0.828,0 -1.502,-0.653 -1.502,-1.453 0,-0.801 0.683,-1.345 1.502,-1.449 m -5.834,4.206 c 0,0 1.314,0.05 1.578,1.296 l 0.007,0.047 c 0,0.721 -0.851,1.271 -1.585,1.271 -0.385,0 -1.331,-0.531 -1.331,-1.311 0,-0.72 0.165,-1.34 1.331,-1.303 m -6.71,5.252 c 0.274,-0.428 0.827,-0.608 1.42,-0.608 0.877,0 1.46,0.561 1.46,1.341 0,0.588 -0.318,1.055 -0.885,1.27 -0.191,0.07 -0.396,0.111 -0.619,0.111 -0.462,0 -0.883,-0.182 -1.174,-0.465 -0.25,-0.253 -0.407,-0.587 -0.407,-0.947 0,-0.258 0.078,-0.496 0.205,-0.702 m 1.587,5.749 c 2.408,-3.442 5.829,-6.216 9.068,-8.176 2.842,-1.715 5.062,-2.681 9.413,-2.681 4.347,0 7.718,0.876 10.693,2.813 2.955,1.925 4.858,4.67 7.121,8.045 2.197,3.281 2.578,5.3 2.898,6.398 0.818,2.799 1.037,5.779 1.227,8.918 0.224,3.687 -0.039,7.237 -1.117,10.376 -0.951,2.78 -2.938,5.171 -4.565,7.37 -1.151,1.557 -2.918,3.081 -4.342,4.265 -2.375,1.964 -4.651,3.31 -7.568,3.975 -1.268,0.287 -3.12,0.672 -4.457,0.775 -5.008,0.388 -7.691,-1.223 -10.799,-3.394 -2.416,-1.689 -4.634,-4.209 -6.349,-6.883 -2.018,-3.155 -3.003,-6.949 -3.683,-11.031 -0.373,-2.251 -0.879,-3.697 -0.879,-5.162 10e-4,-5.629 0.222,-11.148 3.339,-15.608 m -6.124,1.767 c -0.395,-0.254 -0.583,-0.701 -0.583,-1.159 0,-0.267 0.227,-0.697 0.373,-0.906 0.281,-0.405 0.71,-0.49 1.294,-0.49 0.883,0 1.498,0.624 1.498,1.396 0,0.631 -0.386,1.171 -1.049,1.341 -0.143,0.034 -0.292,0.054 -0.449,0.054 -0.36,0 -0.82,-0.063 -1.084,-0.236 m -2.13,7.111 c -0.237,-0.211 -0.329,-0.55 -0.329,-0.873 0,-0.286 0.169,-0.551 0.367,-0.757 0.242,-0.245 0.604,-0.508 1.008,-0.508 0.734,0 1.331,0.626 1.331,1.265 0,0.323 -0.146,0.616 -0.392,0.823 -0.239,0.211 -0.569,0.339 -0.939,0.339 -0.367,0 -0.802,-0.076 -1.046,-0.289 m 0.209,3.772 c 0.785,0 1.546,0.579 1.546,1.377 0,0.251 -0.146,0.812 -0.252,1.021 -0.235,0.454 -0.75,0.502 -1.294,0.502 -0.299,0 -0.578,-0.092 -0.812,-0.261 -0.364,-0.263 -0.601,-0.696 -0.601,-1.185 10e-4,-0.804 0.634,-1.454 1.413,-1.454"
             id="path74"
             inkscape:connector-curvature="0"
             style="fill:#a48359" /></g></g></g></g><defs
     id="defs99"><filter
       id="dropshadow"
       height="130%"><feGaussianBlur
         in="SourceAlpha"
         stdDeviation="3"
         id="feGaussianBlur84" /><!-- stdDeviation is how much to blur --><feOffset
         dx="2"
         dy="4"
         result="offsetblur"
         id="feOffset86" /><!-- how much to offset --><feComponentTransfer
         id="feComponentTransfer90"><feFuncA
           type="linear"
           slope="0.2"
           id="feFuncA88" /></feComponentTransfer><feMerge
         id="feMerge96"><feMergeNode
           id="feMergeNode92" /><!-- this contains the offset blurred image --><feMergeNode
           in="SourceGraphic"
           id="feMergeNode94" /><!-- this contains the element that the filter is applied to --></feMerge></filter></defs></svg>